<?xml version="1.0" encoding="utf-8"?>
<!-- Generator: Adobe Illustrator 24.0.3, SVG Export Plug-In . SVG Version: 6.00 Build 0)  -->
<svg version="1.1" id="Layer_1" xmlns="http://www.w3.org/2000/svg" xmlns:xlink="http://www.w3.org/1999/xlink" x="0px" y="0px"
	 viewBox="0 0 792 612" style="enable-background:new 0 0 792 612;" xml:space="preserve">
<style type="text/css">
	.st0{fill:none;stroke:#FBB040;stroke-width:5;stroke-miterlimit:10;}
	.st1{fill:#FBB040;}
	.st2{fill:#2E3192;}
	.st3{fill:#FFFFFF;stroke:#FBB040;stroke-width:5;stroke-miterlimit:10;}
	.st4{font-family:'Phosphate-Inline';}
	.st5{font-size:65.6238px;}
	.st6{fill:none;stroke:#1B75BC;stroke-miterlimit:10;}
</style>
<line class="st0" x1="581.17" y1="314.35" x2="536.86" y2="314.35"/>
<g>
	<g>
		<path class="st1" d="M1104.18,440.31c31.91,3,63.43,9.06,94.63,16.26c15.72,3.63,31.41,7.41,46.97,11.68
			c15.26,4.19,30.49,8.51,45.69,12.94c16.95,4.94,33.87,10.03,50.75,15.19c3.08,0.94,4.4-3.88,1.33-4.82
			c-30.31-9.27-60.71-18.26-91.27-26.71c-31.07-8.59-62.55-16.09-94.26-21.93c-17.83-3.29-35.79-5.92-53.85-7.62
			c-1.35-0.13-2.5,1.24-2.5,2.5C1101.68,439.27,1102.83,440.18,1104.18,440.31L1104.18,440.31z"/>
	</g>
</g>
<g>
	<g>
		<path class="st2" d="M207.74,160.21c-0.19-15.67-4.81-32.43-16.69-43.34c-11.06-10.16-27.33-14.36-41.24-7.69
			c-13.64,6.54-21.52,20.98-26.98,34.4c-6.65,16.33-10.28,33.68-12.45,51.13c-2.21,17.74-2.88,35.63-3.44,53.48
			c-0.6,19.03-0.88,38.08-0.78,57.12c0.09,17.21,0.79,35.06,7.39,51.2c5.55,13.55,15.73,25.75,29.4,31.6
			c6.69,2.86,13.9,4.03,21.13,3.05c6.53-0.89,12.74-3.49,18.09-7.32c11.31-8.11,18.88-20.51,23.68-33.38
			c1.18-3.16,2.18-6.38,3.01-9.65c0.8-3.12-4.02-4.45-4.82-1.33c-3.21,12.57-8.96,25.02-18.03,34.44
			c-8.62,8.96-20.67,14.48-33.23,12.06c-13.3-2.57-24.33-12.35-30.98-23.83c-8.09-13.96-9.96-30.66-10.47-46.5
			c-0.58-17.84-0.18-35.76,0.23-53.6c0.4-17.47,0.88-34.97,2.29-52.39c1.35-16.62,3.72-33.23,8.41-49.27
			c2.24-7.64,4.95-15.2,8.44-22.37c3.04-6.24,6.74-12.27,11.63-17.25c4.62-4.7,10.31-8.26,16.85-9.5c6.61-1.26,13.64,0.16,19.6,3.14
			c13.46,6.74,20.7,20.55,23.07,34.96c0.59,3.58,0.84,7.21,0.89,10.83C202.78,163.43,207.78,163.44,207.74,160.21L207.74,160.21z"/>
	</g>
</g>
<g>
	<g>
		<path class="st2" d="M244.14,105.04c-1.61,36.61-2.74,73.23-3.38,109.87c-0.64,36.64-0.8,73.28-0.48,109.92
			c0.18,20.59,0.52,41.17,1,61.75c0.03,1.39,1.12,2.45,2.5,2.5c21.21,0.84,42.41,1.69,63.62,2.53c3.22,0.13,3.21-4.87,0-5
			c-21.21-0.84-42.41-1.69-63.62-2.53c0.83,0.83,1.67,1.67,2.5,2.5c-0.86-36.63-1.25-73.27-1.15-109.92
			c0.1-36.64,0.69-73.28,1.75-109.91c0.6-20.58,1.35-41.15,2.26-61.72C249.28,101.82,244.28,101.83,244.14,105.04L244.14,105.04z"/>
	</g>
</g>
<g>
	<g>
		<path class="st2" d="M342.42,102.41c-1.31,37.87-2.77,75.73-4.37,113.59c-1.59,37.66-3.33,75.32-5.21,112.97
			c-1.06,21.24-2.17,42.47-3.32,63.71c-0.17,3.22,4.83,3.21,5,0c2.05-37.83,3.96-75.68,5.72-113.53
			c1.75-37.66,3.36-75.32,4.83-112.99c0.83-21.25,1.61-42.5,2.34-63.75C347.53,99.19,342.53,99.19,342.42,102.41L342.42,102.41z"/>
	</g>
</g>
<g>
	<g>
		<path class="st2" d="M346.42,104.19c5.73,18.53,11.47,37.07,17.2,55.6c5.76,18.62,11.52,37.25,17.28,55.87
			c5.73,18.53,11.47,37.07,17.2,55.6c5.76,18.62,11.52,37.25,17.28,55.87c5.73,18.53,11.47,37.07,17.2,55.6
			c0.73,2.36,1.46,4.72,2.19,7.09c0.95,3.06,5.78,1.76,4.82-1.33c-5.73-18.53-11.47-37.07-17.2-55.6
			c-5.76-18.62-11.52-37.25-17.28-55.87c-5.73-18.53-11.47-37.07-17.2-55.6c-5.76-18.62-11.52-37.25-17.28-55.87
			c-5.73-18.53-11.47-37.07-17.2-55.6c-0.73-2.36-1.46-4.72-2.19-7.09C350.3,99.79,345.47,101.1,346.42,104.19L346.42,104.19z"/>
	</g>
</g>
<g>
	<g>
		<path class="st2" d="M338.92,270.25c18.66-0.51,37.34,1.07,55.64,4.77c1.32,0.27,2.7-0.38,3.08-1.75
			c0.34-1.23-0.42-2.81-1.75-3.08c-18.73-3.79-37.87-5.47-56.97-4.95C335.71,265.34,335.7,270.34,338.92,270.25L338.92,270.25z"/>
	</g>
</g>
<g>
	<g>
		<path class="st2" d="M450.43,87.99c0.52,39.21,1.03,78.43,1.55,117.64c0.51,39.01,1.03,78.03,1.54,117.04
			c0.29,22.01,0.58,44.01,0.87,66.02c0.04,3.21,5.04,3.22,5,0c-0.52-39.21-1.03-78.43-1.55-117.64
			c-0.51-39.01-1.03-78.03-1.54-117.04c-0.29-22.01-0.58-44.01-0.87-66.02C455.39,84.77,450.39,84.76,450.43,87.99L450.43,87.99z"/>
	</g>
</g>
<g>
	<g>
		<path class="st2" d="M500.26,386.06c-0.03-38.54-0.3-77.07-0.82-115.6c-0.52-38.34-1.28-76.67-2.28-114.99
			c-0.57-21.62-1.21-43.24-1.93-64.85c-0.11-3.21-5.11-3.22-5,0c1.28,38.51,2.33,77.04,3.12,115.57
			c0.79,38.33,1.33,76.67,1.64,115.01c0.17,21.63,0.26,43.25,0.28,64.88C495.27,389.27,500.27,389.28,500.26,386.06L500.26,386.06z"
			/>
	</g>
</g>
<g>
	<g>
		<path class="st2" d="M493.6,92.84c10.34-1.9,20.95,1.1,29.68,6.71c9.36,6.01,16.2,15.02,20.56,25.17
			c4.54,10.58,6.41,22.22,6.71,33.67c0.29,11.16-0.87,22.32-3.38,33.19c-5,21.62-15.2,42.09-29.71,58.91
			c-3.68,4.27-7.63,8.31-11.82,12.08c-2.04,1.83-4.12,3.69-5.18,6.29c-1.23,3.02-0.49,6.19,1.06,8.95c1.57,2.81,3.68,5.36,5.56,7.96
			c2.04,2.83,4.08,5.65,6.13,8.47c4.09,5.64,8.19,11.28,12.31,16.9c16.28,22.27,32.74,44.42,49.36,66.43c2.04,2.7,4.09,5.4,6.13,8.1
			c0.81,1.07,2.16,1.64,3.42,0.9c1.06-0.62,1.72-2.34,0.9-3.42c-16.96-22.37-33.75-44.87-50.35-67.51
			c-8.24-11.24-16.44-22.51-24.6-33.82c-1.79-2.48-4.21-5.09-5.24-8.01c-0.97-2.78,0.73-4.68,2.67-6.48
			c4.19-3.89,8.32-7.78,12.11-12.07c15.07-17.05,25.93-37.77,31.47-59.84c2.76-10.99,4.21-22.35,4.21-33.68
			c0-11.86-1.54-23.93-5.65-35.11c-3.97-10.81-10.31-20.8-19.41-28c-8.55-6.77-19.09-11.24-30.09-11.36
			c-2.74-0.03-5.48,0.25-8.17,0.75c-1.33,0.24-2.08,1.85-1.75,3.08C490.91,92.49,492.27,93.09,493.6,92.84L493.6,92.84z"/>
	</g>
</g>
<g>
	<g>
		<path class="st2" d="M619.43,97.18c-0.01,38.01-0.02,76.03-0.02,114.04c-0.01,37.82-0.02,75.64-0.02,113.46
			c0,21.33-0.01,42.67-0.01,64c0,3.22,5,3.22,5,0c0.01-38.01,0.02-76.03,0.02-114.04c0.01-37.82,0.02-75.64,0.02-113.46
			c0-21.33,0.01-42.67,0.01-64C624.43,93.96,619.43,93.95,619.43,97.18L619.43,97.18z"/>
	</g>
</g>
<g>
	<g>
		<path class="st2" d="M623.23,99.41c18.4,2.81,36.97,4.4,55.59,4.66c5.31,0.07,10.62,0.04,15.93-0.1c3.21-0.08,3.22-5.08,0-5
			c-18.3,0.47-36.63-0.3-54.82-2.34c-5.14-0.58-10.26-1.26-15.37-2.04c-1.33-0.2-2.69,0.34-3.08,1.75
			C621.16,97.52,621.89,99.21,623.23,99.41L623.23,99.41z"/>
	</g>
</g>
<g>
	<g>
		<path class="st2" d="M625.18,246.74c10.07,0,20.13,0,30.2,0c3.22,0,3.22-5,0-5c-10.07,0-20.13,0-30.2,0
			C621.97,241.74,621.96,246.74,625.18,246.74L625.18,246.74z"/>
	</g>
</g>
<g>
	<g>
		<path class="st2" d="M622.58,391.9c22.12,0.96,44.23,1.92,66.35,2.89c6.32,0.27,12.64,0.55,18.96,0.82c3.22,0.14,3.21-4.86,0-5
			c-22.12-0.96-44.23-1.92-66.35-2.89c-6.32-0.27-12.64-0.55-18.96-0.82C619.37,386.76,619.37,391.77,622.58,391.9L622.58,391.9z"/>
	</g>
</g>
<path class="st0" d="M190.61,199.01l-5.24-6.68c-15.18-19.35-32.83-1.04-41.07,42.6l-1.74,9.24c-2.08,11.03-3.21,23.46-3.27,36.12
	l-0.15,31.66c-0.2,40.44,4.21,79.72,12.48,111.23v0c6.87,26.16,19.3,31.52,28.43,12.26c5.71-12.05,11.42-24.1,17.13-36.14"/>
<polyline class="st0" points="220.4,184.65 220.4,415.94 266.66,419.33 "/>
<polyline class="st0" points="281.38,412.64 338.79,184.65 396.42,419.33 "/>
<line class="st3" x1="415.27" y1="184.65" x2="415.27" y2="419.46"/>
<path class="st0" d="M447.21,419.46v-92.41v-142.4l26.16,39.81c13.25,20.15,13.36,64.59,0.21,85.09l-11.22,17.51l54.5,92.41"/>
<polyline class="st0" points="596.18,184.65 535.85,184.65 535.85,419.33 605.75,412.64 "/>
<line class="st0" x1="310.61" y1="314.35" x2="371.08" y2="317.27"/>
<text transform="matrix(0.871 0 0 1 538.0485 518.7959)" class="st2 st4 st5">IMAGES</text>
<path class="st6" d="M441.81,533.67C356.4,562.59,188.23,580.43,118.27,569c-52.4-8.56-39.94-31.95,27.55-53.53
	c71.15-22.75,192.97-40.14,274.86-36.98C511.24,481.99,514.31,509.12,441.81,533.67z"/>
<path class="st6" d="M787.68,501.83c60.47-40.71-23.26-60.4-123.5-52.89c-86.73,6.49-197.9,34.25-221.21,55.62
	c-35.27,32.34,141.54,40.01,236.88,24.46c129.43-21.11,195.4-99.17,87.08-102.23c-80.9-2.29-290.15,36.37-364.25,51.96
	c-8.52,1.79-64.37,13.62-141.33,24.44c-42.18,5.93-65.43,9.2-85.45,9.3c-71.79,0.37-75.96-40.1,15.44-59.18
	c59.67-12.45,150.37-13.77,190.37-5.54c52.56,10.82,3.39,35.2-25.22,49.39c-8.63,4.28-17.01,7.66-30.15,9.81
	c-36.08,5.91-94.06,0.27-98.45-11.97c-2.78-7.75,16.2-17.36,31.4-22.63c119.8-41.54,754.18-73.38,748.23-37.01
	c-1.62,9.91-50.86,25.42-153.81,47.23"/>
</svg>
